<?xml version="1.0" encoding="utf-8"?>
<svg version="1.1" xmlns:xlink="http://www.w3.org/1999/xlink" width="28px" height="28px" xmlns="http://www.w3.org/2000/svg">
  <g transform="matrix(1 0 0 1 -277 -146 )">
    <path d="M 22.9869791666667 15.9869791666667  C 23.2178819444444 15.7560763888889  23.3333333333333 15.4826388888889  23.3333333333333 15.1666666666667  L 23.3333333333333 12.8333333333333  C 23.3333333333333 12.5173611111111  23.2178819444444 12.2439236111111  22.9869791666667 12.0130208333333  C 22.7560763888889 11.7821180555556  22.4826388888889 11.6666666666667  22.1666666666667 11.6666666666667  L 13.015625 11.6666666666667  L 16.4609375 8.22135416666667  C 16.6918402777778 7.99045138888889  16.8072916666667 7.71701388888889  16.8072916666667 7.40104166666667  C 16.8072916666667 7.08506944444444  16.6918402777778 6.81163194444444  16.4609375 6.58072916666667  L 14.8020833333333 4.921875  C 14.5833333333333 4.703125  14.3098958333333 4.59375  13.9817708333333 4.59375  C 13.6536458333333 4.59375  13.3802083333333 4.703125  13.1614583333333 4.921875  L 6.5625 11.5208333333333  L 4.90364583333333 13.1796875  C 4.68489583333333 13.3984375  4.57552083333333 13.671875  4.57552083333333 14  C 4.57552083333333 14.328125  4.68489583333333 14.6015625  4.90364583333333 14.8203125  L 6.5625 16.4791666666667  L 13.1614583333333 23.078125  C 13.3802083333333 23.296875  13.6536458333333 23.40625  13.9817708333333 23.40625  C 14.3098958333333 23.40625  14.5833333333333 23.296875  14.8020833333333 23.078125  L 16.4609375 21.4192708333333  C 16.6796875 21.2005208333333  16.7890625 20.9270833333333  16.7890625 20.5989583333333  C 16.7890625 20.2708333333333  16.6796875 19.9973958333333  16.4609375 19.7786458333333  L 13.015625 16.3333333333333  L 22.1666666666667 16.3333333333333  C 22.4826388888889 16.3333333333333  22.7560763888889 16.2178819444444  22.9869791666667 15.9869791666667  Z M 26.1223958333333 6.97265625  C 27.3741319444444 9.11762152777778  28 11.4600694444444  28 14  C 28 16.5399305555556  27.3741319444444 18.8823784722222  26.1223958333333 21.02734375  C 24.8706597222222 23.1723090277778  23.1723090277778 24.8706597222222  21.02734375 26.1223958333333  C 18.8823784722222 27.3741319444444  16.5399305555556 28  14 28  C 11.4600694444444 28  9.11762152777778 27.3741319444444  6.97265625 26.1223958333333  C 4.82769097222222 24.8706597222222  3.12934027777778 23.1723090277778  1.87760416666667 21.02734375  C 0.625868055555555 18.8823784722222  0 16.5399305555556  0 14  C 0 11.4600694444444  0.625868055555555 9.11762152777778  1.87760416666667 6.97265625  C 3.12934027777778 4.82769097222222  4.82769097222222 3.12934027777778  6.97265625 1.87760416666667  C 9.11762152777778 0.625868055555553  11.4600694444444 0  14 0  C 16.5399305555556 0  18.8823784722222 0.625868055555553  21.02734375 1.87760416666667  C 23.1723090277778 3.12934027777778  24.8706597222222 4.82769097222222  26.1223958333333 6.97265625  Z " fill-rule="nonzero" fill="#000000" stroke="none" transform="matrix(1 0 0 1 277 146 )" />
  </g>
</svg>