<?xml version="1.0" encoding="utf-8"?>
<svg version="1.1" xmlns:xlink="http://www.w3.org/1999/xlink" width="73px" height="66px" xmlns="http://www.w3.org/2000/svg">
  <g transform="matrix(1 0 0 1 -108 -10 )">
    <path d="M 108 10  L 181 10  L 181 76  L 108 76  L 108 10  " fill-rule="nonzero" fill="#cccccc" stroke="none" />
    <path d="M 113 15  L 176 15  L 176 71  L 113 71  L 113 15  " fill-rule="nonzero" fill="#ffffff" stroke="none" />
    <path d="M 150.91 29.8  C 148.138 29.8  145.96 27.622  145.96 24.85  C 145.96 22.078  148.138 19.9  150.91 19.9  C 153.682 19.9  155.86 22.078  155.86 24.85  C 155.86 27.622  153.682 29.8  150.91 29.8  " fill-rule="nonzero" fill="#cccccc" stroke="none" />
    <path d="M 115 70  L 115 40.85  L 130 27.6  L 151 41.2493150684932  L 163 35.55  L 175 41.2493150684932  L 175 70  L 115 70  " fill-rule="nonzero" fill="#169bd5" stroke="none" />
  </g>
</svg>