<?xml version="1.0" encoding="utf-8"?>
<svg version="1.1" xmlns:xlink="http://www.w3.org/1999/xlink" width="56px" height="56px" xmlns="http://www.w3.org/2000/svg">
  <g transform="matrix(1 0 0 1 -285 -17 )">
    <path d="M 313 17  C 328.68 17  341 29.32  341 45  C 341 60.68  328.68 73  313 73  C 297.32 73  285 60.68  285 45  C 285 29.32  297.32 17  313 17  Z " fill-rule="nonzero" fill="#ffffff" stroke="none" />
    <path d="M 313 17.5  C 328.4 17.5  340.5 29.6  340.5 45  C 340.5 60.4  328.4 72.5  313 72.5  C 297.6 72.5  285.5 60.4  285.5 45  C 285.5 29.6  297.6 17.5  313 17.5  Z " stroke-width="1" stroke="#d7d7d7" fill="none" />
  </g>
</svg>