<?xml version="1.0" encoding="utf-8"?>
<svg version="1.1" xmlns:xlink="http://www.w3.org/1999/xlink" width="12px" height="12px" viewBox="638 224.5  12 12" xmlns="http://www.w3.org/2000/svg">
  <path d="M 644 224.5  C 647.36 224.5  650 227.14  650 230.5  C 650 233.86  647.36 236.5  644 236.5  C 640.64 236.5  638 233.86  638 230.5  C 638 227.14  640.64 224.5  644 224.5  Z " fill-rule="nonzero" fill="#ffffff" stroke="none" />
  <path d="M 644 225  C 647.08 225  649.5 227.42  649.5 230.5  C 649.5 233.58  647.08 236  644 236  C 640.92 236  638.5 233.58  638.5 230.5  C 638.5 227.42  640.92 225  644 225  Z " stroke-width="1" stroke="#797979" fill="none" />
  <path d="M 644 233.5  C 642.32 233.5  641 232.18  641 230.5  C 641 228.82  642.32 227.5  644 227.5  C 645.68 227.5  647 228.82  647 230.5  C 647 232.18  645.68 233.5  644 233.5  " fill-rule="nonzero" fill="#797979" stroke="none" />
</svg>