<?xml version="1.0" encoding="utf-8"?>
<svg version="1.1" xmlns:xlink="http://www.w3.org/1999/xlink" width="12px" height="12px" viewBox="691 224.5  12 12" xmlns="http://www.w3.org/2000/svg">
  <path d="M 697 224.5  C 700.36 224.5  703 227.14  703 230.5  C 703 233.86  700.36 236.5  697 236.5  C 693.64 236.5  691 233.86  691 230.5  C 691 227.14  693.64 224.5  697 224.5  Z " fill-rule="nonzero" fill="#ffffff" stroke="none" />
  <path d="M 697 225  C 700.08 225  702.5 227.42  702.5 230.5  C 702.5 233.58  700.08 236  697 236  C 693.92 236  691.5 233.58  691.5 230.5  C 691.5 227.42  693.92 225  697 225  Z " stroke-width="1" stroke="#797979" fill="none" />
  <path d="M 697 233.5  C 695.32 233.5  694 232.18  694 230.5  C 694 228.82  695.32 227.5  697 227.5  C 698.68 227.5  700 228.82  700 230.5  C 700 232.18  698.68 233.5  697 233.5  " fill-rule="nonzero" fill="#797979" stroke="none" />
</svg>